<svg viewBox="0 0 256 256"
     width="300"
     height="200"
     xmlns="http://www.w3.org/2000/svg"
     version="1.1">
  <path
    d="M48.5 113.781c0-23.567 19.059-42.656 42.59-42.656h2.839c6.281 0 11.357 5.083 11.357 11.375s-5.076 11.375-11.357 11.375h-2.84c-10.966 0-19.875 8.922-19.875 19.906v2.844H93.93c12.528 0 22.714 10.202 22.714 22.75v22.75c0 12.548-10.186 22.75-22.714 22.75H71.214c-12.528 0-22.714-10.202-22.714-22.75v-48.344Zm90.857 0c0-23.567 19.059-42.656 42.589-42.656h2.84c6.282 0 11.357 5.083 11.357 11.375s-5.075 11.375-11.357 11.375h-2.84c-10.966 0-19.875 8.922-19.875 19.906v2.844h22.715c12.528 0 22.714 10.202 22.714 22.75v22.75c0 12.548-10.186 22.75-22.714 22.75h-22.715c-12.528 0-22.714-10.202-22.714-22.75v-48.344Z"/>
</svg>
