<?xml version="1.0" encoding="UTF-8" standalone="no"?>
<svg
   xmlns:dc="http://purl.org/dc/elements/1.1/"
   xmlns:cc="http://creativecommons.org/ns#"
   xmlns:rdf="http://www.w3.org/1999/02/22-rdf-syntax-ns#"
   xmlns:svg="http://www.w3.org/2000/svg"
   xmlns="http://www.w3.org/2000/svg"
   xmlns:sodipodi="http://sodipodi.sourceforge.net/DTD/sodipodi-0.dtd"
   xmlns:inkscape="http://www.inkscape.org/namespaces/inkscape"
   version="1.1"
   x="0px"
   y="0px"
   viewBox="0 0 98.959908 91.039795"
   enable-background="new 0 0 100 100"
   xml:space="preserve"
   id="svg2"
   inkscape:version="0.91 r13725"
   sodipodi:docname="noun_853142_cc.svg"
   width="98.959908"
   height="91.039795"><metadata
     id="metadata42"><rdf:RDF><cc:Work
         rdf:about=""><dc:format>image/svg+xml</dc:format><dc:type
           rdf:resource="http://purl.org/dc/dcmitype/StillImage" /><dc:title></dc:title></cc:Work></rdf:RDF></metadata><defs
     id="defs40" /><sodipodi:namedview
     pagecolor="#ffffff"
     bordercolor="#666666"
     borderopacity="1"
     objecttolerance="10"
     gridtolerance="10"
     guidetolerance="10"
     inkscape:pageopacity="0"
     inkscape:pageshadow="2"
     inkscape:window-width="1293"
     inkscape:window-height="817"
     id="namedview38"
     showgrid="false"
     fit-margin-top="10"
     fit-margin-left="10"
     fit-margin-right="10"
     fit-margin-bottom="10"
     inkscape:zoom="1.888"
     inkscape:cx="-21.359957"
     inkscape:cy="34.2501"
     inkscape:window-x="0"
     inkscape:window-y="0"
     inkscape:window-maximized="0"
     inkscape:current-layer="svg2" /><path
     stroke-miterlimit="10"
     d="m 27.167958,58.106694 c 0,0 -0.5,2.377 4.333,5.113 4.833,2.736 6.833,2.736 6.833,2.736 0,0 -2.75,-3 -2.417,-4.417 0.333,-1.417 5.417,4.083 10.333,2.417 0,0 -1.655,-1.591 -2.953,-5.004 -1.089,-2.725 -2.157,-3.589 -3.006,-4.288 0,0 6.708,-7.125 4.958,-17.125 0,0 -0.75,-4.75 -3.5,-7.75 0,0 6.167,8.167 16.5,3.417 0,0 -1.167,-3.75 -5.833,-6.917 -4.666,-3.167 -8.25,-1.333 -12.583,-1.417 -4.333,-0.083 -5.25,-3.667 -5.25,-3.667 0,0 -3,2.75 -6.333,1.667 -3.333,-1.083 -3.25,-3.25 -8.167,-1.667 -4.917,1.583 -9.083,7.5 -9.083,7.5 0,0 8.333,5.333 12.833,-2.583 0,0 -4,10.5 -5.667,14 -1.667,3.5 -7.5,20.5 14,17.667"
     id="path4"
     inkscape:connector-curvature="0"
     style="fill:none;stroke:currentColor;stroke-width:2;stroke-linecap:round;stroke-linejoin:round;stroke-miterlimit:10" /><path
     stroke-miterlimit="10"
     d="m 24.350958,20.869694 c 0,0 6.901,-7.705 11.401,-8.893 4.5,-1.188 6.334,-1.185 8.438,-0.625 l -2.691,2.683 -7.956,7.932 c 0,0 8.96,-10.616 18.147,-7.991 l -8.535,10.687"
     id="path6"
     inkscape:connector-curvature="0"
     style="fill:none;stroke:currentColor;stroke-width:2;stroke-linecap:round;stroke-linejoin:round;stroke-miterlimit:10" /><circle
     stroke-miterlimit="10"
     cx="23.251957"
     cy="36.289692"
     r="0.75"
     id="circle8"
     style="fill:none;stroke:currentColor;stroke-width:2;stroke-linecap:round;stroke-linejoin:round;stroke-miterlimit:10" /><circle
     stroke-miterlimit="10"
     cx="38.417957"
     cy="37.789692"
     r="0.75"
     id="circle10"
     style="fill:none;stroke:currentColor;stroke-width:2;stroke-linecap:round;stroke-linejoin:round;stroke-miterlimit:10" /><path
     stroke-miterlimit="10"
     d="m 21.167958,49.539694 c 0,0 3.292,0.75 3.625,3.208"
     id="path12"
     inkscape:connector-curvature="0"
     style="fill:none;stroke:currentColor;stroke-linecap:round;stroke-linejoin:round;stroke-miterlimit:10" /><path
     stroke-miterlimit="10"
     d="m 28.202958,53.596694 c 0,0 1.625,-2.417 4.917,-1.875"
     id="path14"
     inkscape:connector-curvature="0"
     style="fill:none;stroke:currentColor;stroke-linecap:round;stroke-linejoin:round;stroke-miterlimit:10" /><path
     stroke-miterlimit="10"
     d="m 45.483958,39.374694 c 0,0 2.851,6.582 12.101,6.415 9.25,-0.167 22.167,4 23.417,11.167 1.25,7.167 -1.062,22.25 -4.146,23.083 l -6.167,0 -0.438,-11.5 c 0,0 -2.083,1.583 -7.583,1.583 -5.5,0 -8.5,-3.667 -8.5,-3.667"
     id="path16"
     inkscape:connector-curvature="0"
     style="fill:none;stroke:currentColor;stroke-width:2;stroke-linecap:round;stroke-linejoin:round;stroke-miterlimit:10" /><path
     stroke-miterlimit="10"
     d="m 42.625958,64.085694 c 0,0 6.209,15.537 9.875,15.954 l 6.584,0 0,-10.47"
     id="path18"
     inkscape:connector-curvature="0"
     style="fill:none;stroke:currentColor;stroke-width:2;stroke-linecap:round;stroke-linejoin:round;stroke-miterlimit:10" /><path
     stroke-miterlimit="10"
     d="m 38.334958,65.956694 c 0,0 4.583,14.083 8.667,14.083 4.084,0 5.5,0 5.5,0"
     id="path20"
     inkscape:connector-curvature="0"
     style="fill:none;stroke:currentColor;stroke-width:2;stroke-linecap:round;stroke-linejoin:round;stroke-miterlimit:10" /><polyline
     stroke-miterlimit="10"
     points="  65.749,75.742 67.749,85.75 72.167,85.75 "
     id="polyline22"
     style="fill:none;stroke:currentColor;stroke-width:2;stroke-linecap:round;stroke-linejoin:round;stroke-miterlimit:10"
     transform="translate(-0.91504193,-5.7103064)" /><path
     stroke-miterlimit="10"
     d="m 79.388958,53.521694 c 0,0 4.946,3.81 8.571,0.268 0,0 -1.308,7.958 -6.613,8.083"
     id="path24"
     inkscape:connector-curvature="0"
     style="fill:none;stroke:currentColor;stroke-width:2;stroke-linecap:round;stroke-linejoin:round;stroke-miterlimit:10" /><path
     stroke-miterlimit="10"
     d="m 27.972958,16.587694 c 0,0 3.216,2.827 7.466,2.452"
     id="path26"
     inkscape:connector-curvature="0"
     style="fill:none;stroke:currentColor;stroke-linecap:round;stroke-linejoin:round;stroke-miterlimit:10" /><path
     stroke-miterlimit="10"
     d="m 32.902958,12.960694 c 0,0 1.211,3.19 6.842,2.822"
     id="path28"
     inkscape:connector-curvature="0"
     style="fill:none;stroke:currentColor;stroke-linecap:round;stroke-linejoin:round;stroke-miterlimit:10" /><path
     stroke-miterlimit="10"
     d="m 38.019958,18.164694 c 0,0 2.262,4.237 8.059,2.837"
     id="path30"
     inkscape:connector-curvature="0"
     style="fill:none;stroke:currentColor;stroke-linecap:round;stroke-linejoin:round;stroke-miterlimit:10" /><path
     stroke-miterlimit="10"
     d="m 43.109958,14.792694 c 0,0 0.857,2.958 5.749,2.728"
     id="path32"
     inkscape:connector-curvature="0"
     style="fill:none;stroke:currentColor;stroke-linecap:round;stroke-linejoin:round;stroke-miterlimit:10" /></svg>
