<?xml version="1.0" encoding="iso-8859-1"?>
<!-- Generator: Adobe Illustrator 19.0.0, SVG Export Plug-In . SVG Version: 6.00 Build 0)  -->
<svg version="1.1" id="Layer_1" xmlns="http://www.w3.org/2000/svg" xmlns:xlink="http://www.w3.org/1999/xlink" x="0px" y="0px"
	 viewBox="0 0 490.534 490.534" style="enable-background:new 0 0 490.534 490.534;" xml:space="preserve">
<g id="XMLID_1217_">
	<g id="XMLID_1195_">
		<polygon style="fill:#CBBBA0;" points="46.454,202.271 46.454,186.69 69.827,93.199 163.317,15.291 249.017,7.5 342.507,46.454 
			365.88,85.409 303.553,54.245 249.017,54.245 163.317,108.781 139.945,163.317 139.945,202.271 		"/>
	</g>
	<g id="XMLID_1175_">
		<polygon style="fill:#F9B233;" points="202.272,319.134 241.226,319.134 280.18,358.089 280.18,412.625 303.553,443.788 
			326.611,490.533 333.617,490.533 451.579,490.533 451.579,241.535 280.18,241.226 202.272,241.226 		"/>
	</g>
	<g id="XMLID_1174_">
		<rect x="373.671" y="249.017" style="fill:#FAC15C;" width="77.909" height="241.517"/>
	</g>
	<g id="XMLID_1179_">
		<polygon style="fill:#F9B233;" points="147.736,194.481 46.454,194.481 46.454,474.952 147.736,474.952 147.736,365.879 
			163.317,342.507 202.272,326.925 202.272,287.971 217.853,264.598 264.598,264.598 334.716,194.481 		"/>
	</g>
	<g id="XMLID_1128_">
		<rect x="46.454" y="428.206" style="fill:#FAD399;" width="31.163" height="54.536"/>
	</g>
	<g id="XMLID_1178_">
		<polygon style="fill:#F39200;" points="132.154,241.226 132.154,295.762 151.631,303.553 171.108,287.971 171.108,241.226 		"/>
	</g>
	<g id="XMLID_622_">
		<rect x="202.272" y="264.89" style="fill:#1D1D1B;" width="70.118" height="15"/>
	</g>
	<g id="XMLID_623_">
		<rect x="225.644" y="241.517" style="fill:#1D1D1B;" width="70.118" height="15"/>
	</g>
	<g id="XMLID_624_">
		<rect x="249.017" y="218.144" style="fill:#1D1D1B;" width="70.118" height="15"/>
	</g>
	<g id="XMLID_629_">
		<path style="fill:#FAD399;" d="M171.108,241.226v42.85c0,10.757-8.72,19.477-19.477,19.477l0,0
			c-10.757,0-19.477-8.72-19.477-19.477v-42.85"/>
		<path style="fill:#1D1D1B;" d="M151.631,311.053c-14.875,0-26.977-12.103-26.977-26.978v-42.85h15v42.85
			c0,6.604,5.373,11.978,11.977,11.978s11.977-5.373,11.977-11.978v-42.85h15v42.85C178.608,298.95,166.506,311.053,151.631,311.053
			z"/>
	</g>
	<g id="XMLID_632_">
		<rect x="77.618" y="288.262" style="fill:#FFFFFF;" width="23.372" height="15"/>
	</g>
	<g>
		<path style="fill:#1D1D1B;" d="M38.954,490.242h116.281v-100.99c0-25.936,21.1-47.036,47.036-47.036h7.5v-54.245h-15v39.696
			c-30.682,3.715-54.536,29.917-54.536,61.585v85.99H85.118v-46.745H62.036v15h8.082v31.745H53.954V287.68h54.827v-15H53.954
			v-62.908h288.553v-15H38.954V490.242z"/>
		<path style="fill:#1D1D1B;" d="M412.334,186.689c0-1.206-0.015-2.409-0.046-3.607C410.358,81.801,327.379,0,225.644,0
			C122.703,0,38.954,83.749,38.954,186.689h15c0-2.709,0.071-5.402,0.196-8.081h54.631v-15h-53.27
			c0.38-2.813,0.827-5.604,1.341-8.373h36.347v-15H60.344c0.794-2.82,1.654-5.612,2.587-8.372h14.687v-15h-8.809
			C95.613,56.895,155.825,15,225.644,15c51.384,0,97.561,22.696,129.053,58.583c-23.115-16.867-51.567-26.838-82.308-26.838
			c-77.166,0-139.944,62.778-139.944,139.944h15c0-68.895,56.05-124.944,124.944-124.944c67.818,0,123.19,54.312,124.904,121.724
			c0.02,1.072,0.041,2.144,0.041,3.221L412.334,186.689L412.334,186.689z"/>
	</g>
	<g id="XMLID_549_">
		<rect x="311.344" y="241.517" style="fill:#1D1D1B;" width="140.235" height="15"/>
	</g>
	<g id="XMLID_523_">
		<path style="fill:#1D1D1B;" d="M287.68,420.416h-15V373.67c0-25.935-21.1-47.035-47.036-47.035v-15
			c34.207,0,62.036,27.829,62.036,62.035V420.416z"/>
	</g>
	<g id="XMLID_551_">
		<rect x="296.053" y="404.834" style="fill:#1D1D1B;" width="15" height="38.954"/>
	</g>
	<g id="XMLID_553_">
		<rect x="319.425" y="435.997" style="fill:#1D1D1B;" width="15" height="54.536"/>
	</g>
</g>
<g>
</g>
<g>
</g>
<g>
</g>
<g>
</g>
<g>
</g>
<g>
</g>
<g>
</g>
<g>
</g>
<g>
</g>
<g>
</g>
<g>
</g>
<g>
</g>
<g>
</g>
<g>
</g>
<g>
</g>
</svg>
